<svg id="Capa_1" data-name="Capa 1" xmlns="http://www.w3.org/2000/svg" viewBox="0 0 832.32 230.4"><defs><style>.cls-1{font-size:231.39px;font-family:Poppins-Regular, Poppins;}.cls-1,.cls-3{fill:#f39ba7;}.cls-1,.cls-2,.cls-3{stroke:#f39ba7;stroke-miterlimit:10;}.cls-2{fill:none;stroke-width:5px;}</style></defs><text class="cls-1" transform="translate(126.46 195.59)">onata</text><path class="cls-2" d="M78.35,50.09c-3.54,5-4,15.07,1.83,21.09C82,73,84,74.71,85.89,76.52A32.57,32.57,0,0,1,90,80.94c2.31,3.34,1.7,6.6-1.45,9.22-2.32,1.92-4.8,3.67-7,5.76-4.12,4-5.74,9.14-5.9,14.77-.21,7.09,1.39,13.6,6.61,18.74,2.18,2.15,4.67,4,7,6s2.67,4.3,1.1,7a16.69,16.69,0,0,1-2.17,2.91c-2,2.21-4.33,4.22-6.26,6.53A35.62,35.62,0,0,0,77,159a15.37,15.37,0,0,0,3.26,17.3,9.86,9.86,0,0,0,1.12.83,80.7,80.7,0,0,1-46.5,17.12A82,82,0,0,0,38.3,30.69,80.67,80.67,0,0,1,80.92,47.17,35.31,35.31,0,0,0,78.35,50.09Z"/><path class="cls-3" d="M33.88,197.17h.23a83.22,83.22,0,0,0,48-17.68,10.38,10.38,0,0,1-1.15-.85,15.88,15.88,0,0,1-3.37-17.87,36.16,36.16,0,0,1,5.09-7.31c2-2.39,4.34-4.47,6.46-6.74a17,17,0,0,0,2.24-3c1.62-2.78,1.27-5.05-1.14-7.22s-4.92-4-7.17-6.25c-5.39-5.31-7-12-6.83-19.35.17-5.82,1.84-11.12,6.1-15.26,2.22-2.16,4.79-4,7.18-5.94C92.79,87,93.41,83.6,91,80.14a33.36,33.36,0,0,0-4.27-4.56c-1.92-1.87-4-3.59-5.89-5.51-6.08-6.22-5.55-16.61-1.9-21.79a37.67,37.67,0,0,1,2.66-3,83.25,83.25,0,0,0-44-17h-.18c-.54,0-1.09-.09-1.63-.12l-.57,0L34,28l-.81,0-1,0H30.23l-1.29,0h-.62V72.8c.72,0,1.43-.06,2.16-.06a39.86,39.86,0,0,1,0,79.72c-.73,0-1.44,0-2.16-.06v44.82c.69,0,1.38,0,2.08,0h.81l1.09,0Z"/></svg>